#!OML:ASF E:\emotionWalksFemale\Project 1\Capture day 1\Session 1\Female1.ASF
:FULLY-SPECIFIED
:DEGREES
2254
root 10.0391 15.3849 27.8922 -2.78571 -6.252 3.09716
lowerback 6.94504 -0.0286788 2.13585
upperback -4.80663 0.454386 3.20369
thorax -9.0134 0.203479 2.13715
lowerneck -5.03171 4.45008 0.446729
upperneck 17.4164 5.714 1.93811
head 6.05279 2.95306 0.917896
rclavicle 6.16232e-015 6.36111e-015
rhumerus -63.4643 48.8901 -124.574
rradius 104.653
rwrist -35.8083
rhand 19.8247 -62.4738
rfingers 7.12502
rthumb -135.628 -1706.22
lclavicle 6.16232e-015 6.36111e-015
lhumerus -30.5522 -52.8856 100.411
lradius 145.323
lwrist 30.3206
lhand -4.51356 -51.4354
lfingers 7.12502
lthumb 21.2607 -22.5814
rfemur -11.8673 0.221775 16.0993
rtibia 69.5202
rfoot -4.93199 0.172081
rtoes -18.9441
lfemur -7.72316 -7.76259 -32.8875
ltibia 21.3667
lfoot -14.0484 11.3304
ltoes -6.27415
2255
root 10.0413 15.3705 27.9682 -2.82809 -6.07695 3.26227
lowerback 6.76668 -0.0575758 1.94388
upperback -4.51948 0.37207 3.15197
thorax -8.59304 0.173317 2.19418
lowerneck -5.40051 4.3135 0.470245
upperneck 17.3649 5.52992 1.88176
head 6.10417 2.86028 0.893138
rclavicle -1.41137e-014 3.33958e-014
rhumerus -62.776 49.191 -124.13
rradius 104.607
rwrist -35.9545
rhand 19.7814 -62.1621
rfingers 7.12502
rthumb -135.669 -1705.92
lclavicle -1.41137e-014 3.33958e-014
lhumerus -29.7548 -52.8067 99.7653
lradius 145.338
lwrist 30.6994
lhand -4.60124 -51.411
lfingers 7.12502
lthumb 21.1765 -22.5476
rfemur -13.1153 0.0425691 15.9566
rtibia 70.1881
rfoot -5.99965 -1.0281
rtoes -18.7665
lfemur -7.17089 -7.49147 -33.1575
ltibia 21.0974
lfoot -14.3717 10.9647
ltoes -6.32247
2256
root 10.0478 15.3627 28.0456 -2.92197 -5.64419 3.30161
lowerback 6.95739 -0.155991 2.01578
upperback -4.46853 0.243561 3.01836
thorax -8.64504 0.101928 2.03075
lowerneck -5.46566 4.19533 0.639154
upperneck 17.5103 5.35073 1.85624
head 6.1686 2.78183 0.849933
rclavicle -5.56597e-015 1.27222e-014
rhumerus -62.5466 49.1086 -124.167
rradius 104.548
rwrist -36.0212
rhand 19.622 -61.9081
rfingers 7.12502
rthumb -135.817 -1705.72
lclavicle -5.56597e-015 1.27222e-014
lhumerus -29.9499 -53.1112 99.8469
lradius 145.484
lwrist 31.2579
lhand -4.77103 -51.5683
lfingers 7.12502
lthumb 21.0134 -22.6868
rfemur -14.1904 -0.374015 15.9282
rtibia 70.6414
rfoot -6.76375 -2.16443
rtoes -17.9372
lfemur -6.5563 -7.463 -33.3212
ltibia 20.8795
lfoot -14.5899 10.6281
ltoes -4.97782
2257
root 10.0521 15.3619 28.1275 -3.04624 -5.39529 3.28094
lowerback 7.48326 -0.208506 2.06929
upperback -4.63789 0.202816 2.95949
thorax -9.13865 0.0767224 1.95362
lowerneck -5.46357 4.10081 0.62885
upperneck 17.8751 5.18403 2.06932
head 6.27859 2.71703 0.913752
rclavicle -6.55989e-015 -3.02153e-014
rhumerus -62.9879 48.7023 -124.604
rradius 104.565
rwrist -36.009
rhand 19.4056 -62.1488
rfingers 7.12502
rthumb -136.019 -1706.04
lclavicle -6.55989e-015 -3.02153e-014
lhumerus -30.7765 -53.2151 100.419
lradius 145.669
lwrist 31.609
lhand -5.0498 -51.8396
lfingers 7.12502
lthumb 20.7456 -22.9285
rfemur -15.2171 -0.537908 16.0269
rtibia 70.9075
rfoot -7.73613 -3.25792
rtoes -17.4745
lfemur -5.97664 -7.34212 -33.4133
ltibia 20.7141
lfoot -14.6909 10.5452
ltoes -4.54039
2258
root 10.0505 15.3551 28.2104 -3.06718 -5.3967 3.45278
lowerback 7.30694 -0.145831 1.79355
upperback -4.44451 0.23635 2.89376
thorax -8.82352 0.107542 2.02748
lowerneck -5.55769 4.0083 0.824587
upperneck 17.7844 5.04726 1.98194
head 6.27532 2.65623 0.845588
rclavicle 1.23246e-014 1.43125e-014
rhumerus -62.5662 48.6916 -124.335
rradius 104.491
rwrist -36.022
rhand 19.4179 -62.2257
rfingers 7.12502
rthumb -136.008 -1706.11
lclavicle 1.23246e-014 1.43125e-014
lhumerus -30.2268 -53.2333 99.9167
lradius 145.698
lwrist 32.0936
lhand -5.10542 -51.9367
lfingers 7.12502
lthumb 20.6921 -23.0198
rfemur -16.3679 -0.317544 15.9689
rtibia 71.0472
rfoot -8.73363 -4.33106
rtoes -16.3689
lfemur -5.58114 -7.02424 -33.6695
ltibia 20.6367
lfoot -14.8024 10.5857
ltoes -6.02775
2259
root 10.0482 15.3533 28.2939 -2.98633 -5.28757 3.66217
lowerback 7.14278 -0.117545 1.40974
upperback -4.42129 0.223412 2.86976
thorax -8.70173 0.123199 2.21759
lowerneck -5.4628 3.82959 0.743047
upperneck 17.8088 4.80693 2.01375
head 6.2648 2.53651 0.850367
rclavicle -9.74045e-015 -1.43125e-014
rhumerus -62.4083 48.5441 -124.229
rradius 104.434
rwrist -35.8114
rhand 19.4855 -62.0988
rfingers 7.12502
rthumb -135.945 -1705.96
lclavicle -9.74045e-015 -1.43125e-014
lhumerus -30.0723 -53.1403 99.7338
lradius 145.778
lwrist 32.6859
lhand -4.97934 -52.0814
lfingers 7.12502
lthumb 20.8133 -23.1777
rfemur -17.5273 -0.178798 15.859
rtibia 71.0351
rfoot -9.53954 -5.32871
rtoes -14.6153
lfemur -5.35551 -6.90205 -33.9577
ltibia 20.6225
lfoot -14.9635 10.7254
ltoes -8.77128
